<?xml version="1.0" encoding="UTF-8" standalone="no"?><!-- Generator: Gravit.io --><svg xmlns="http://www.w3.org/2000/svg" xmlns:xlink="http://www.w3.org/1999/xlink" style="isolation:isolate" viewBox="0 0 2100 1917" width="2100pt" height="1917pt"><defs><clipPath id="_clipPath_QPMMfv7RoqQSV8RJ3nBtO7JaXSIXriWO"><rect width="2100" height="1917"/></clipPath></defs><g clip-path="url(#_clipPath_QPMMfv7RoqQSV8RJ3nBtO7JaXSIXriWO)"><linearGradient id="_lgradient_1" x1="0" y1="0.5" x2="1" y2="0.5" gradientTransform="matrix(2100,0,0,1917,0,0)" gradientUnits="userSpaceOnUse"><stop offset="1.7391304347826086%" stop-opacity="1" style="stop-color:rgb(242,242,242)"/><stop offset="53.04347826086957%" stop-opacity="1" style="stop-color:rgb(255,255,255)"/></linearGradient><rect x="0" y="0" width="2100" height="1917" transform="matrix(1,0,0,1,0,0)" fill="url(#_lgradient_1)"/><g><path d=" M 618 1103 C 618 1147.183 582.183 1183 538 1183 C 493.817 1183 458 1147.183 458 1103 C 458 1058.817 493.817 1023 538 1023 C 582.183 1023 618 1058.817 618 1103 Z " fill="rgb(137,233,217)"/><path d=" M 614.25 1100.656 L 614.25 1105.344 L 581.281 1105.344 L 581.281 1154.875 L 576.594 1154.875 L 576.594 1105.344 L 520.031 1105.344 L 520.031 1154.875 L 515.344 1154.875 L 515.344 1105.344 L 470.5 1105.344 L 470.5 1100.656 L 515.344 1100.656 L 515.344 1051.125 L 520.031 1051.125 L 520.031 1100.656 L 576.594 1100.656 L 576.594 1051.125 L 581.281 1051.125 L 581.281 1100.656 L 614.25 1100.656 Z " fill="rgb(14,209,178)"/><path d=" M 538.312 1103 C 538.312 1114.39 529.078 1123.625 517.687 1123.625 C 506.297 1123.625 497.062 1114.39 497.062 1103 C 497.062 1091.61 506.297 1082.375 517.687 1082.375 C 529.078 1082.375 538.312 1091.61 538.312 1103 Z " fill="rgb(236,116,182)"/><path d=" M 515.008 1123.446 C 504.884 1122.132 497.062 1113.482 497.062 1103 C 497.062 1092.518 504.884 1083.868 515.008 1082.554 C 508.944 1086.689 504.875 1094.296 504.875 1103 C 504.875 1111.704 508.944 1119.311 515.008 1123.446 Z " fill="rgb(230,89,169)"/><path d=" M 473.625 1103 C 473.625 1109.213 468.588 1114.25 462.375 1114.25 C 461.09 1114.25 459.855 1114.031 458.706 1113.635 C 458.243 1110.155 458 1106.606 458 1103 C 458 1099.394 458.243 1095.845 458.706 1092.365 C 459.855 1091.969 461.09 1091.75 462.375 1091.75 C 468.588 1091.75 473.625 1096.787 473.625 1103 Z  M 617.235 1091.934 C 611.983 1092.884 608 1097.475 608 1103 C 608 1108.525 611.983 1113.116 617.235 1114.066 C 617.735 1110.449 618 1106.756 618 1103 C 618 1099.244 617.735 1095.551 617.235 1091.934 Z " fill="rgb(10,181,158)"/><path d=" M 523.906 1098.144 L 521.059 1112.376 C 520.334 1116.005 518.549 1119.339 515.932 1121.956 L 479.899 1157.99 C 474.068 1151.831 469.208 1144.744 465.559 1136.976 L 498.255 1104.279 C 500.872 1101.662 504.206 1099.877 507.835 1099.152 L 522.067 1096.306 C 523.161 1096.087 524.125 1097.05 523.906 1098.144 Z " fill="rgb(251,197,109)"/><path d=" M 542.375 1038.625 L 542.375 1057.375 C 542.375 1059.101 540.976 1060.5 539.25 1060.5 L 495.188 1060.5 C 493.461 1060.5 492.063 1059.101 492.063 1057.375 L 492.063 1038.625 C 492.063 1036.899 493.461 1035.5 495.188 1035.5 L 539.25 1035.5 C 540.976 1035.5 542.375 1036.899 542.375 1038.625 Z  M 597.49 1135.5 L 559.563 1135.5 C 557.836 1135.5 556.438 1136.899 556.438 1138.625 L 556.438 1169.875 C 556.438 1171.601 557.836 1173 559.563 1173 L 576.749 1173 C 585.976 1167.882 594.084 1160.993 600.614 1152.792 L 600.614 1138.625 C 600.615 1136.899 599.216 1135.5 597.49 1135.5 Z " fill="rgb(6,128,174)"/><path d=" M 543.313 1038.625 L 543.313 1057.375 C 543.313 1059.101 541.914 1060.5 540.188 1060.5 L 502.688 1060.5 C 500.961 1060.5 499.563 1059.101 499.563 1057.375 L 499.563 1038.625 C 499.563 1036.899 500.961 1035.5 502.688 1035.5 L 540.188 1035.5 C 541.914 1035.5 543.313 1036.899 543.313 1038.625 Z  M 598.313 1135.5 L 566.148 1135.5 C 564.422 1135.5 563.023 1136.899 563.023 1138.625 L 563.023 1169.875 C 563.023 1171.601 564.422 1173 566.148 1173 L 576.749 1173 C 586.368 1167.664 594.77 1160.404 601.438 1151.739 L 601.438 1138.625 C 601.438 1136.899 600.039 1135.5 598.313 1135.5 Z " fill="rgb(54,145,187)"/><path d=" M 542.375 1141.75 L 542.375 1160.5 C 542.375 1162.226 540.976 1163.625 539.25 1163.625 L 495.188 1163.625 C 493.461 1163.625 492.063 1162.226 492.063 1160.5 L 492.063 1141.75 C 492.063 1140.024 493.461 1138.625 495.188 1138.625 L 539.25 1138.625 C 540.976 1138.625 542.375 1140.024 542.375 1141.75 Z  M 598.995 1041.75 L 558 1041.75 C 556.274 1041.75 554.875 1043.149 554.875 1044.875 L 554.875 1082.375 C 554.875 1084.101 556.274 1085.5 558 1085.5 L 598.995 1085.5 C 600.721 1085.5 602.12 1084.101 602.12 1082.375 L 602.12 1044.875 C 602.12 1043.149 600.721 1041.75 598.995 1041.75 Z " fill="rgb(253,237,50)"/><path d=" M 543.313 1141.75 L 543.313 1160.5 C 543.313 1162.226 541.914 1163.625 540.188 1163.625 L 502.688 1163.625 C 500.961 1163.625 499.563 1162.226 499.563 1160.5 L 499.563 1141.75 C 499.563 1140.024 500.961 1138.625 502.688 1138.625 L 540.188 1138.625 C 541.914 1138.625 543.313 1140.024 543.313 1141.75 Z  M 599.875 1041.75 L 565.042 1041.75 C 563.317 1041.75 561.917 1043.149 561.917 1044.875 L 561.917 1082.375 C 561.917 1084.101 563.317 1085.5 565.042 1085.5 L 599.875 1085.5 C 601.601 1085.5 603 1084.101 603 1082.375 L 603 1044.875 C 603 1043.149 601.601 1041.75 599.875 1041.75 Z " fill="rgb(253,243,133)"/><path d=" M 588.054 1103.571 L 579.821 1111.804 C 579.333 1112.292 578.542 1112.292 578.054 1111.804 L 569.821 1103.571 C 569.333 1103.083 569.333 1102.292 569.821 1101.804 L 578.054 1093.571 C 578.542 1093.083 579.333 1093.083 579.821 1093.571 L 588.054 1101.804 C 588.542 1102.292 588.542 1103.083 588.054 1103.571 Z " fill="rgb(221,244,186)"/><path d=" M 588.054 1101.804 C 588.542 1102.292 588.542 1103.083 588.054 1103.571 L 581.672 1109.953 L 575.29 1103.571 C 574.802 1103.083 574.802 1102.292 575.29 1101.804 L 581.672 1095.422 L 588.054 1101.804 Z " fill="rgb(236,248,217)"/><path d=" M 512.219 1048 C 512.219 1049.294 511.169 1050.344 509.875 1050.344 C 508.581 1050.344 507.531 1049.294 507.531 1048 C 507.531 1046.706 508.581 1045.656 509.875 1045.656 C 511.169 1045.656 512.219 1046.706 512.219 1048 Z  M 517.688 1045.656 C 516.394 1045.656 515.344 1046.706 515.344 1048 C 515.344 1049.294 516.394 1050.344 517.688 1050.344 C 518.981 1050.344 520.031 1049.294 520.031 1048 C 520.031 1046.706 518.981 1045.656 517.688 1045.656 Z  M 525.5 1045.656 C 524.206 1045.656 523.156 1046.706 523.156 1048 C 523.156 1049.294 524.206 1050.344 525.5 1050.344 C 526.794 1050.344 527.844 1049.294 527.844 1048 C 527.844 1046.706 526.794 1045.656 525.5 1045.656 Z  M 591.203 1147.219 L 566.672 1147.219 C 566.326 1147.219 566.047 1147.498 566.047 1147.844 L 566.047 1151.281 C 566.047 1151.627 566.326 1151.906 566.672 1151.906 L 591.203 1151.906 C 591.549 1151.906 591.828 1151.627 591.828 1151.281 L 591.828 1147.844 C 591.828 1147.498 591.549 1147.219 591.203 1147.219 Z  M 588.338 1156.594 L 569.536 1156.594 C 569.191 1156.594 568.911 1156.873 568.911 1157.219 L 568.911 1160.656 C 568.911 1161.002 569.191 1161.281 569.536 1161.281 L 588.338 1161.281 C 588.684 1161.281 588.963 1161.002 588.963 1160.656 L 588.963 1157.219 C 588.963 1156.873 588.684 1156.594 588.338 1156.594 Z " fill="rgb(136,185,211)"/><path d=" M 599.875 1062.687 L 599.875 1066.125 C 599.875 1066.47 599.595 1066.75 599.25 1066.75 L 558.625 1066.75 C 558.28 1066.75 558 1066.47 558 1066.125 L 558 1062.687 C 558 1062.342 558.28 1062.062 558.625 1062.062 L 599.25 1062.062 C 599.595 1062.062 599.875 1062.342 599.875 1062.687 Z  M 588.338 1071.437 L 569.536 1071.437 C 569.191 1071.437 568.911 1071.717 568.911 1072.062 L 568.911 1075.5 C 568.911 1075.845 569.191 1076.125 569.536 1076.125 L 588.338 1076.125 C 588.684 1076.125 588.963 1075.845 588.963 1075.5 L 588.963 1072.062 C 588.963 1071.717 588.684 1071.437 588.338 1071.437 Z  M 566.672 1057.375 L 591.203 1057.375 C 591.549 1057.375 591.828 1057.095 591.828 1056.75 L 591.828 1053.312 C 591.828 1052.967 591.549 1052.687 591.203 1052.687 L 566.672 1052.687 C 566.326 1052.687 566.047 1052.967 566.047 1053.312 L 566.047 1056.75 C 566.047 1057.095 566.326 1057.375 566.672 1057.375 Z  M 531.307 1144.484 L 503.129 1144.484 C 502.785 1144.484 502.504 1144.764 502.504 1145.109 L 502.504 1148.547 C 502.504 1148.892 502.785 1149.172 503.129 1149.172 L 531.307 1149.172 C 531.652 1149.172 531.932 1148.892 531.932 1148.547 L 531.932 1145.109 C 531.932 1144.764 531.652 1144.484 531.307 1144.484 Z  M 509.406 1153.078 C 508.112 1153.078 507.063 1154.128 507.063 1155.422 C 507.063 1156.716 508.112 1157.766 509.406 1157.766 C 510.7 1157.766 511.75 1156.716 511.75 1155.422 C 511.75 1154.128 510.7 1153.078 509.406 1153.078 Z  M 517.219 1153.078 C 515.925 1153.078 514.875 1154.128 514.875 1155.422 C 514.875 1156.716 515.925 1157.766 517.219 1157.766 C 518.513 1157.766 519.563 1156.716 519.563 1155.422 C 519.563 1154.128 518.513 1153.078 517.219 1153.078 Z  M 525.031 1153.078 C 523.737 1153.078 522.688 1154.128 522.688 1155.422 C 522.688 1156.716 523.737 1157.766 525.031 1157.766 C 526.325 1157.766 527.375 1156.716 527.375 1155.422 C 527.375 1154.128 526.325 1153.078 525.031 1153.078 Z " fill="rgb(232,206,0)"/><path d=" M 515.527 1113.524 C 517.968 1115.964 517.968 1119.921 515.527 1122.362 L 479.899 1157.99 C 474.068 1151.831 469.208 1144.744 465.559 1136.976 L 497.85 1104.685 C 500.29 1102.243 504.248 1102.243 506.688 1104.685 C 509.129 1107.125 509.129 1111.082 506.688 1113.524 C 509.129 1111.082 513.087 1111.082 515.527 1113.524 L 515.527 1113.524 Z " fill="rgb(1,114,150)"/><path d=" M 506.688 1104.685 C 509.129 1107.125 509.129 1111.082 506.688 1113.524 L 471.999 1148.214 C 469.561 1144.663 467.406 1140.906 465.559 1136.976 L 497.85 1104.685 C 500.29 1102.243 504.248 1102.243 506.688 1104.685 Z " fill="rgb(2,95,128)"/><path d=" M 517 1097.319 L 522.067 1096.306 C 523.161 1096.087 524.125 1097.05 523.907 1098.144 L 522.893 1103.211 L 517 1097.319 Z " fill="rgb(2,76,103)"/></g><g><path d=" M 418 1103 C 418 1147.183 382.183 1183 338 1183 C 293.817 1183 258 1147.183 258 1103 C 258 1058.817 293.817 1023 338 1023 C 382.183 1023 418 1058.817 418 1103 Z " fill="rgb(1,114,150)"/><path d=" M 373.055 1126.782 C 373.055 1125.258 374.29 1124.024 375.813 1124.024 C 377.335 1124.024 378.57 1125.258 378.57 1126.782 C 378.57 1128.304 377.335 1129.538 375.813 1129.538 C 374.29 1129.538 373.055 1128.304 373.055 1126.782 L 373.055 1126.782 Z  M 375.813 1122.186 C 377.335 1122.186 378.57 1120.952 378.57 1119.428 C 378.57 1117.906 377.335 1116.672 375.813 1116.672 C 374.29 1116.672 373.055 1117.906 373.055 1119.428 C 373.055 1120.952 374.29 1122.186 375.813 1122.186 Z  M 375.813 1140.734 C 372.36 1140.734 369.563 1143.532 369.563 1146.984 C 369.563 1149.665 371.253 1151.945 373.625 1152.833 L 373.625 1174.643 C 375.218 1173.85 376.782 1173.005 378.313 1172.11 L 378.313 1152.711 C 380.52 1151.746 382.063 1149.547 382.063 1146.984 C 382.063 1143.532 379.265 1140.734 375.813 1140.734 Z  M 375.813 1137.517 C 377.335 1137.517 378.57 1136.282 378.57 1134.76 C 378.57 1133.237 377.335 1132.003 375.813 1132.003 C 374.29 1132.003 373.055 1133.237 373.055 1134.76 C 373.055 1136.282 374.29 1137.517 375.813 1137.517 Z  M 300.188 1137.517 C 301.71 1137.517 302.945 1136.282 302.945 1134.76 C 302.945 1133.237 301.71 1132.003 300.188 1132.003 C 298.665 1132.003 297.43 1133.237 297.43 1134.76 C 297.43 1136.282 298.665 1137.517 300.188 1137.517 Z  M 300.188 1140.734 C 296.735 1140.734 293.938 1143.532 293.938 1146.984 C 293.938 1149.665 295.628 1151.945 298 1152.833 L 298 1172.294 C 299.531 1173.181 301.094 1174.013 302.688 1174.799 L 302.688 1152.711 C 304.895 1151.746 306.438 1149.547 306.438 1146.984 C 306.438 1143.532 303.64 1140.734 300.188 1140.734 Z  M 300.188 1122.186 C 301.71 1122.186 302.945 1120.952 302.945 1119.428 C 302.945 1117.906 301.71 1116.672 300.188 1116.672 C 298.665 1116.672 297.43 1117.906 297.43 1119.428 C 297.43 1120.952 298.665 1122.186 300.188 1122.186 Z  M 300.188 1129.538 C 301.71 1129.538 302.945 1128.304 302.945 1126.781 C 302.945 1125.258 301.71 1124.024 300.188 1124.024 C 298.665 1124.024 297.43 1125.258 297.43 1126.781 C 297.43 1128.304 298.665 1129.538 300.188 1129.538 Z  M 395.5 1068.937 C 392.048 1068.937 389.25 1071.735 389.25 1075.187 C 389.25 1077.868 390.941 1080.148 393.313 1081.036 L 393.313 1133.312 C 393.313 1134.606 394.362 1135.656 395.656 1135.656 C 396.95 1135.656 398 1134.606 398 1133.312 L 398 1080.914 C 400.207 1079.949 401.75 1077.75 401.75 1075.187 C 401.75 1071.735 398.952 1068.937 395.5 1068.937 Z  M 395.5 1065.72 C 397.022 1065.72 398.258 1064.486 398.258 1062.963 C 398.258 1061.44 397.022 1060.206 395.5 1060.206 C 393.978 1060.206 392.742 1061.44 392.742 1062.963 C 392.742 1064.486 393.978 1065.72 395.5 1065.72 Z  M 395.5 1057.741 C 397.022 1057.741 398.258 1056.507 398.258 1054.984 C 398.258 1053.461 397.022 1052.227 395.5 1052.227 C 393.978 1052.227 392.742 1053.461 392.742 1054.984 C 392.742 1056.507 393.978 1057.741 395.5 1057.741 Z  M 395.5 1050.389 C 397.022 1050.389 398.258 1049.155 398.258 1047.631 C 398.258 1046.109 397.022 1044.875 395.5 1044.875 C 393.978 1044.875 392.742 1046.109 392.742 1047.633 C 392.742 1049.155 393.978 1050.389 395.5 1050.389 Z  M 395.5 1153.956 C 393.978 1153.956 392.742 1155.191 392.742 1156.713 C 392.742 1157.98 393.599 1159.046 394.764 1159.368 C 395.911 1158.212 397.022 1157.021 398.098 1155.798 C 397.72 1154.726 396.701 1153.956 395.5 1153.956 L 395.5 1153.956 Z  M 395.5 1145.977 C 393.978 1145.977 392.742 1147.211 392.742 1148.735 C 392.742 1150.257 393.978 1151.491 395.5 1151.491 C 397.022 1151.491 398.258 1150.257 398.258 1148.735 C 398.258 1147.211 397.022 1145.977 395.5 1145.977 Z  M 395.5 1138.625 C 393.978 1138.625 392.742 1139.859 392.742 1141.383 C 392.742 1142.905 393.978 1144.139 395.5 1144.139 C 397.022 1144.139 398.258 1142.905 398.258 1141.383 C 398.258 1139.859 397.022 1138.625 395.5 1138.625 Z  M 279.875 1088.625 C 276.423 1088.625 273.625 1091.423 273.625 1094.875 C 273.625 1097.437 275.168 1099.637 277.375 1100.601 L 277.375 1155.196 C 278.865 1156.926 280.432 1158.588 282.063 1160.185 L 282.063 1100.723 C 284.434 1099.836 286.125 1097.556 286.125 1094.875 C 286.125 1091.423 283.327 1088.625 279.875 1088.625 L 279.875 1088.625 Z  M 279.875 1085.407 C 281.397 1085.407 282.633 1084.173 282.633 1082.651 C 282.633 1081.127 281.397 1079.893 279.875 1079.893 C 278.353 1079.893 277.117 1081.127 277.117 1082.651 C 277.117 1084.173 278.353 1085.407 279.875 1085.407 Z  M 279.875 1077.429 C 281.397 1077.429 282.633 1076.195 282.633 1074.671 C 282.633 1073.149 281.397 1071.915 279.875 1071.915 C 278.353 1071.915 277.117 1073.149 277.117 1074.671 C 277.117 1076.195 278.353 1077.429 279.875 1077.429 Z  M 279.875 1070.076 C 281.397 1070.076 282.633 1068.842 282.633 1067.319 C 282.633 1065.797 281.397 1064.562 279.875 1064.562 C 278.353 1064.562 277.117 1065.797 277.117 1067.32 C 277.117 1068.842 278.353 1070.076 279.875 1070.076 Z  M 372.375 1042.844 C 372.375 1039.392 369.577 1036.594 366.125 1036.594 C 362.673 1036.594 359.875 1039.392 359.875 1042.844 C 359.875 1045.466 361.491 1047.707 363.781 1048.635 L 363.781 1119.875 C 363.781 1120.859 364.831 1121.656 366.125 1121.656 C 367.42 1121.656 368.469 1120.859 368.469 1119.875 L 368.469 1048.635 C 370.759 1047.707 372.375 1045.466 372.375 1042.844 Z  M 309.875 1036.594 C 306.423 1036.594 303.625 1039.392 303.625 1042.844 C 303.625 1045.466 305.241 1047.707 307.531 1048.635 L 307.531 1119.875 C 307.531 1120.859 308.581 1121.656 309.875 1121.656 C 311.17 1121.656 312.219 1120.859 312.219 1119.875 L 312.219 1048.635 C 314.509 1047.707 316.125 1045.466 316.125 1042.844 C 316.125 1039.392 313.327 1036.594 309.875 1036.594 Z  M 338 1026.125 C 334.548 1026.125 331.75 1028.923 331.75 1032.375 C 331.75 1034.997 333.366 1037.238 335.656 1038.166 L 335.656 1120.125 C 335.656 1121.109 336.706 1121.906 338 1121.906 C 339.295 1121.906 340.344 1121.109 340.344 1120.125 L 340.344 1038.166 C 342.634 1037.238 344.25 1034.997 344.25 1032.375 C 344.25 1028.923 341.452 1026.125 338 1026.125 Z " fill="rgb(54,145,187)"/><path d=" M 383.625 1093.625 C 383.625 1107.194 377.7 1119.379 368.297 1127.736 C 360.072 1135.046 355.5 1145.622 355.5 1156.625 L 355.5 1157.375 L 320.5 1157.375 L 320.5 1156.491 C 320.5 1145.394 315.654 1134.923 307.42 1127.484 C 298.138 1119.095 292.32 1106.945 292.375 1093.436 C 292.478 1068.28 312.844 1048 338 1048 C 363.199 1048 383.625 1068.427 383.625 1093.625 L 383.625 1093.625 Z " fill="rgb(253,237,50)"/><path d=" M 383.625 1093.625 C 383.625 1107.194 377.7 1119.379 368.297 1127.736 C 360.072 1135.046 355.5 1145.622 355.5 1156.625 L 355.5 1157.375 L 332.375 1157.375 L 332.375 1156.491 C 332.375 1145.394 327.529 1134.923 319.295 1127.484 C 310.013 1119.095 304.195 1106.945 304.25 1093.436 C 304.344 1070.294 321.588 1051.28 343.933 1048.383 C 366.328 1051.292 383.625 1070.438 383.625 1093.625 L 383.625 1093.625 Z " fill="rgb(253,243,133)"/><path d=" M 373.938 1084.979 C 371.309 1086.85 361.42 1076.859 359.354 1074.77 C 358.11 1073.514 346.417 1061.7 348.52 1058.937 C 350.216 1056.711 361.009 1060.184 367.688 1067.687 C 373.409 1074.116 376.073 1083.459 373.938 1084.979 L 373.938 1084.979 Z " fill="rgb(253,247,189)"/><path d=" M 360.344 1100.354 L 360.344 1125.5 C 360.344 1126.549 359.648 1127.469 358.64 1127.755 L 340.344 1132.973 L 340.344 1151.375 C 340.344 1152.359 339.295 1153.156 338 1153.156 C 336.706 1153.156 335.656 1152.359 335.656 1151.375 L 335.656 1117.526 L 316.735 1112.13 C 315.727 1111.844 315.031 1110.924 315.031 1109.875 L 315.031 1090.979 C 312.741 1090.051 311.125 1087.81 311.125 1085.187 C 311.125 1081.735 313.923 1078.937 317.375 1078.937 C 320.827 1078.937 323.625 1081.735 323.625 1085.187 C 323.625 1087.81 322.009 1090.051 319.719 1090.979 L 319.719 1108.104 L 335.656 1112.651 L 335.656 1069.416 C 333.366 1068.488 331.75 1066.247 331.75 1063.625 C 331.75 1060.173 334.548 1057.375 338 1057.375 C 341.452 1057.375 344.25 1060.173 344.25 1063.625 C 344.25 1066.247 342.634 1068.488 340.344 1069.416 L 340.344 1128.098 L 355.656 1123.729 L 355.656 1100.354 C 353.366 1099.426 351.75 1097.185 351.75 1094.562 C 351.75 1091.11 354.548 1088.312 358 1088.312 C 361.452 1088.312 364.25 1091.11 364.25 1094.562 C 364.25 1097.185 362.634 1099.426 360.344 1100.354 L 360.344 1100.354 Z " fill="rgb(232,206,0)"/><path d=" M 361.438 1154.25 C 361.438 1157.048 359.598 1159.416 357.063 1160.213 L 357.063 1160.5 C 357.063 1169.129 350.067 1176.125 341.438 1176.125 L 334.563 1176.125 C 325.933 1176.125 318.938 1169.129 318.938 1160.5 L 318.938 1160.213 C 316.402 1159.416 314.563 1157.048 314.563 1154.25 C 314.563 1150.798 317.36 1148 320.813 1148 L 355.188 1148 C 358.64 1148 361.438 1150.798 361.438 1154.25 Z " fill="rgb(136,185,211)"/><path d=" M 361.438 1154.25 C 361.438 1157.048 359.598 1159.416 357.063 1160.213 L 357.063 1160.5 C 357.063 1168.004 351.772 1174.27 344.719 1175.777 C 340.019 1174.772 336.102 1171.655 334.012 1167.467 C 333.49 1166.42 334.232 1165.187 335.401 1165.187 L 349.406 1165.187 C 350.725 1165.187 351.789 1164.099 351.749 1162.772 C 351.711 1161.489 350.592 1160.5 349.309 1160.5 L 329.875 1160.5 C 326.423 1160.5 323.625 1157.702 323.625 1154.25 C 323.625 1150.798 326.423 1148 329.875 1148 L 355.188 1148 C 358.64 1148 361.438 1150.798 361.438 1154.25 L 361.438 1154.25 Z " fill="rgb(179,209,225)"/></g><g><path d=" M 183 1167.161 L 183 1167.774 C 183 1168.647 182.554 1169.456 181.825 1169.935 C 169.237 1178.193 154.18 1183 138 1183 C 107.775 1183 81.472 1166.236 67.864 1141.502 C 67.153 1140.209 68.087 1138.625 69.562 1138.625 L 86.125 1138.625 L 86.125 1042.571 C 86.125 1042.274 86.254 1041.992 86.481 1041.802 C 100.589 1029.912 118.863 1022.809 138.802 1023.004 C 182.022 1023.428 217.346 1058.563 217.991 1101.782 C 218.268 1120.44 212.155 1137.659 201.701 1151.397 C 200.326 1153.201 198.179 1154.25 195.911 1154.25 C 188.78 1154.25 183 1160.03 183 1167.161 L 183 1167.161 Z " fill="rgb(196,50,134)"/><path d=" M 201.907 1151.125 C 196.374 1158.461 189.605 1164.813 181.912 1169.875 L 113.166 1169.875 C 112.241 1169.875 111.336 1169.6 110.566 1169.088 L 99.147 1161.475 C 98.45 1161.011 98.45 1159.988 99.147 1159.525 L 110.566 1151.912 C 111.336 1151.398 112.241 1151.125 113.166 1151.125 L 201.907 1151.125 Z  M 198.625 1135.5 L 198.625 1050.803 C 195.817 1047.545 192.749 1044.519 189.457 1041.75 L 86.542 1041.75 C 69.092 1056.426 58 1078.415 58 1103 C 58 1117.06 61.632 1130.269 68.001 1141.75 L 192.375 1141.75 C 195.827 1141.75 198.625 1138.952 198.625 1135.5 Z " fill="rgb(136,185,211)"/><path d=" M 201.907 1151.125 C 198.263 1155.957 194.084 1160.36 189.457 1164.25 L 128.128 1164.25 C 127.367 1164.25 126.75 1163.632 126.75 1162.872 L 126.75 1157.318 C 126.75 1156.113 125.886 1155.032 124.69 1154.892 C 123.268 1154.725 122.062 1155.831 122.062 1157.219 L 122.062 1162.872 C 122.062 1163.632 121.445 1164.25 120.684 1164.25 L 118.753 1164.25 C 117.992 1164.25 117.375 1163.632 117.375 1162.872 L 117.375 1151.125 L 201.907 1151.125 Z  M 101.902 1157.687 L 110.566 1163.463 C 110.572 1163.467 110.579 1163.471 110.585 1163.476 C 111.486 1164.069 112.687 1163.381 112.687 1162.302 L 112.687 1151.152 C 111.93 1151.23 111.202 1151.488 110.566 1151.912 L 101.902 1157.687 Z  M 154.875 1132.375 L 63.566 1132.375 C 59.974 1123.281 58 1113.371 58 1103 C 58 1078.415 69.092 1056.426 86.542 1041.75 L 192.375 1041.75 C 195.827 1041.75 198.625 1044.548 198.625 1048 L 198.625 1126.125 C 198.625 1129.577 195.827 1132.375 192.375 1132.375 L 154.875 1132.375 Z  M 187.375 1098 C 187.375 1099.726 188.774 1101.125 190.5 1101.125 C 192.226 1101.125 193.625 1099.726 193.625 1098 L 193.625 1085.5 C 193.625 1083.774 192.226 1082.375 190.5 1082.375 C 188.774 1082.375 187.375 1083.774 187.375 1085.5 L 187.375 1098 Z " fill="rgb(179,209,225)"/><path d=" M 183 1054.25 L 183 1129.25 C 183 1130.976 181.601 1132.375 179.875 1132.375 L 63.566 1132.375 C 59.974 1123.281 58 1113.371 58 1103 C 58 1083.205 65.194 1065.093 77.103 1051.125 L 179.875 1051.125 C 181.601 1051.125 183 1052.524 183 1054.25 Z " fill="rgb(253,247,189)"/><path d=" M 74.086 1132.375 L 63.566 1132.375 C 59.974 1123.281 58 1113.371 58 1103 C 58 1083.205 65.194 1065.093 77.103 1051.125 L 79.875 1051.125 C 67.899 1065.144 68.494 1083.32 68.521 1103.108 C 68.535 1113.44 70.507 1123.313 74.086 1132.375 Z " fill="rgb(252,244,152)"/><path d=" M 83 1102.375 L 83 1104.563 C 83 1105.252 82.441 1105.813 81.75 1105.813 L 58.055 1105.813 C 58.022 1104.879 58 1103.941 58 1103 C 58 1102.373 58.01 1101.749 58.023 1101.125 L 81.75 1101.125 C 82.441 1101.125 83 1101.684 83 1102.375 Z  M 98.625 1058.938 C 98.625 1057.212 97.226 1055.813 95.5 1055.813 L 73.399 1055.813 C 71.925 1057.827 70.543 1059.912 69.26 1062.063 L 95.5 1062.063 C 97.226 1062.063 98.625 1060.664 98.625 1058.938 Z  M 120.812 1119.094 L 104.562 1119.094 C 103.871 1119.094 103.312 1119.653 103.312 1120.344 L 103.312 1122.531 C 103.312 1123.221 103.871 1123.781 104.562 1123.781 L 120.812 1123.781 C 121.503 1123.781 122.062 1123.221 122.062 1122.531 L 122.062 1120.344 C 122.062 1119.653 121.503 1119.094 120.812 1119.094 Z  M 81.75 1110.5 L 58.353 1110.5 C 58.499 1112.076 58.686 1113.64 58.923 1115.188 L 81.75 1115.188 C 82.441 1115.188 83 1114.627 83 1113.938 L 83 1111.75 C 83 1111.059 82.441 1110.5 81.75 1110.5 Z  M 164.25 1062.063 C 165.976 1062.063 167.375 1060.664 167.375 1058.938 C 167.375 1057.212 165.976 1055.813 164.25 1055.813 C 162.524 1055.813 161.125 1057.212 161.125 1058.938 C 161.125 1060.664 162.524 1062.063 164.25 1062.063 Z  M 78.625 1119.094 L 59.62 1119.094 C 59.942 1120.675 60.317 1122.236 60.732 1123.781 L 78.625 1123.781 C 79.316 1123.781 79.875 1123.221 79.875 1122.531 L 79.875 1120.344 C 79.875 1119.653 79.316 1119.094 78.625 1119.094 Z  M 166.125 1119.094 L 149.875 1119.094 C 149.184 1119.094 148.625 1119.653 148.625 1120.344 L 148.625 1122.531 C 148.625 1123.221 149.184 1123.781 149.875 1123.781 L 166.125 1123.781 C 166.816 1123.781 167.375 1123.221 167.375 1122.531 L 167.375 1120.344 C 167.375 1119.653 166.816 1119.094 166.125 1119.094 Z  M 172.375 1101.125 L 143.625 1101.125 C 142.934 1101.125 142.375 1101.684 142.375 1102.375 L 142.375 1104.563 C 142.375 1105.252 142.934 1105.813 143.625 1105.813 L 172.375 1105.813 C 173.066 1105.813 173.625 1105.252 173.625 1104.563 L 173.625 1102.375 C 173.625 1101.684 173.066 1101.125 172.375 1101.125 Z  M 127.062 1110.109 L 98.312 1110.109 C 97.621 1110.109 97.062 1110.669 97.062 1111.359 L 97.062 1113.547 C 97.062 1114.237 97.621 1114.797 98.312 1114.797 L 127.062 1114.797 C 127.753 1114.797 128.312 1114.237 128.312 1113.547 L 128.312 1111.359 C 128.312 1110.669 127.753 1110.109 127.062 1110.109 Z  M 173.625 1055.813 C 171.899 1055.813 170.5 1057.212 170.5 1058.938 C 170.5 1060.664 171.899 1062.063 173.625 1062.063 C 175.351 1062.063 176.75 1060.664 176.75 1058.938 C 176.75 1057.212 175.351 1055.813 173.625 1055.813 Z  M 127.062 1101.125 L 98.312 1101.125 C 97.621 1101.125 97.062 1101.684 97.062 1102.375 L 97.062 1104.563 C 97.062 1105.252 97.621 1105.813 98.312 1105.813 L 127.062 1105.813 C 127.753 1105.813 128.312 1105.252 128.312 1104.563 L 128.312 1102.375 C 128.312 1101.684 127.753 1101.125 127.062 1101.125 Z  M 172.375 1110.109 L 143.625 1110.109 C 142.934 1110.109 142.375 1110.669 142.375 1111.359 L 142.375 1113.547 C 142.375 1114.237 142.934 1114.797 143.625 1114.797 L 172.375 1114.797 C 173.066 1114.797 173.625 1114.237 173.625 1113.547 L 173.625 1111.359 C 173.625 1110.669 173.066 1110.109 172.375 1110.109 Z " fill="rgb(253,203,107)"/><path d=" M 158.781 1070.656 C 152.319 1070.656 147.062 1075.913 147.062 1082.375 C 147.062 1088.836 152.319 1094.094 158.781 1094.094 C 165.243 1094.094 170.5 1088.836 170.5 1082.375 C 170.5 1075.913 165.243 1070.656 158.781 1070.656 Z  M 158.781 1089.406 C 154.904 1089.406 151.75 1086.252 151.75 1082.375 C 151.75 1078.498 154.904 1075.344 158.781 1075.344 C 162.658 1075.344 165.812 1078.498 165.812 1082.375 C 165.812 1086.252 162.658 1089.406 158.781 1089.406 Z  M 144.615 1082.531 C 144.615 1083.825 143.565 1084.875 142.271 1084.875 C 140.976 1084.875 139.927 1083.825 139.927 1082.531 C 139.927 1081.238 140.976 1080.188 142.271 1080.188 C 143.565 1080.188 144.615 1081.238 144.615 1082.531 Z  M 81.75 1082.375 C 81.75 1083.669 80.7 1084.719 79.406 1084.719 L 73.233 1084.719 C 72.144 1090.061 67.409 1094.094 61.75 1094.094 C 60.639 1094.094 59.566 1093.933 58.548 1093.642 C 58.732 1092.06 58.958 1090.492 59.233 1088.939 C 60.014 1089.24 60.863 1089.406 61.75 1089.406 C 65.627 1089.406 68.781 1086.252 68.781 1082.375 C 68.781 1078.882 66.22 1075.976 62.877 1075.436 C 63.425 1073.943 64.019 1072.474 64.653 1071.025 C 68.97 1072.13 72.336 1075.634 73.232 1080.031 L 79.406 1080.031 C 80.7 1080.031 81.75 1081.081 81.75 1082.375 Z  M 128.781 1080.031 L 121.749 1080.031 C 120.66 1074.688 115.925 1070.656 110.265 1070.656 C 103.803 1070.656 98.547 1075.913 98.547 1082.375 C 98.547 1088.836 103.803 1094.094 110.265 1094.094 C 115.925 1094.094 120.66 1090.061 121.749 1084.719 L 128.781 1084.719 C 130.075 1084.719 131.125 1083.669 131.125 1082.375 C 131.125 1081.081 130.075 1080.031 128.781 1080.031 Z  M 110.265 1089.406 C 106.389 1089.406 103.234 1086.252 103.234 1082.375 C 103.234 1078.498 106.389 1075.344 110.265 1075.344 C 114.142 1075.344 117.297 1078.498 117.297 1082.375 C 117.297 1086.252 114.142 1089.406 110.265 1089.406 Z  M 88.312 1082.531 C 88.312 1083.825 87.263 1084.875 85.969 1084.875 C 84.675 1084.875 83.625 1083.825 83.625 1082.531 C 83.625 1081.238 84.675 1080.188 85.969 1080.188 C 87.263 1080.188 88.312 1081.238 88.312 1082.531 Z  M 137.687 1082.531 C 137.687 1083.825 136.637 1084.875 135.344 1084.875 C 134.05 1084.875 133 1083.825 133 1082.531 C 133 1081.238 134.05 1080.188 135.344 1080.188 C 136.637 1080.188 137.687 1081.238 137.687 1082.531 Z  M 95.24 1082.531 C 95.24 1083.825 94.19 1084.875 92.896 1084.875 C 91.601 1084.875 90.552 1083.825 90.552 1082.531 C 90.552 1081.238 91.601 1080.188 92.896 1080.188 C 94.19 1080.188 95.24 1081.238 95.24 1082.531 Z " fill="rgb(253,168,0)"/><path d=" M 154.875 1082.375 C 154.875 1080.221 156.626 1078.469 158.781 1078.469 C 160.935 1078.469 162.687 1080.221 162.687 1082.375 C 162.687 1084.53 160.935 1086.281 158.781 1086.281 C 156.626 1086.281 154.875 1084.53 154.875 1082.375 Z " fill="rgb(252,105,48)"/></g><g><path d=" M 118.768 160.696 L 156.104 256.696 C 159.691 265.922 168.573 272 178.472 272 L 519.528 272 C 529.438 272.013 538.337 265.933 541.928 256.696 L 579.264 160.696 C 584.067 148.342 577.945 134.433 565.591 129.631 C 562.809 128.549 559.849 127.996 556.864 128 L 141.136 128 C 127.881 128.001 117.137 138.746 117.137 152.001 C 117.137 154.975 117.69 157.924 118.768 160.696 L 118.768 160.696 Z  M 517 168 L 493 240 L 205 240 L 181 168 L 517 168 Z " fill="rgb(104,156,176)"/><path d=" M 205 240 L 493 240 L 517 168 L 181 168 L 205 240 Z " fill="rgb(247,234,208)"/><path d=" M 517 168 L 181 168 L 200.144 225.432 L 513.76 177.712 L 517 168 Z " fill="rgb(237,223,194)"/><path d=" M 579.4 144 C 576.041 134.413 566.99 127.996 556.832 128 L 141.136 128 C 130.99 128.01 121.955 134.424 118.6 144 L 579.4 144 Z " fill="rgb(92,142,161)"/><g><path d=" M 357 771.312 L 381 795.312 L 381 856 L 397 856 L 397 788.688 L 357 748.688 L 357 200 L 341 200 L 341 960 L 357 960 L 357 771.312 Z " fill="rgb(132,205,217)"/><path d=" M 245 936 L 261 936 L 261 867.312 L 309 819.312 L 309 200 L 293 200 L 293 812.688 L 245 860.688 L 245 936 Z " fill="rgb(132,205,217)"/><path d=" M 149 836.688 L 149 960 L 165 960 L 165 843.312 L 173 835.312 L 197 859.312 L 197 896 L 213 896 L 213 852.688 L 184.312 824 L 229 779.312 L 245 795.312 L 245 824 L 261 824 L 261 788.688 L 240.312 768 L 261 747.312 L 261 200 L 245 200 L 245 692.688 L 193.688 744 L 149 744 L 149 760 L 200.312 760 L 245 715.312 L 245 740.688 L 149 836.688 Z " fill="rgb(132,205,217)"/><path d=" M 549 960 L 565 960 L 565 812.688 L 520.312 768 L 528.312 768 L 554.656 741.656 L 543.344 730.344 L 521.688 752 L 504.312 752 L 453 700.688 L 453 200 L 437 200 L 437 707.312 L 549 819.312 L 549 960 Z " fill="rgb(132,205,217)"/><path d=" M 421 844.688 L 421 928 L 437 928 L 437 851.312 L 477 811.312 L 493 827.312 L 493 880 L 509 880 L 509 820.688 L 405 716.688 L 405 200 L 389 200 L 389 723.312 L 465.688 800 L 421 844.688 Z " fill="rgb(132,205,217)"/><path d=" M 397 904 L 381 904 L 381 872 L 397 872 L 397 904 Z " fill="rgb(132,205,217)"/><path d=" M 213 928 L 197 928 L 197 912 L 213 912 L 213 928 Z " fill="rgb(132,205,217)"/></g><g><path d=" M 373 968 C 373 981.246 362.246 992 349 992 C 335.754 992 325 981.246 325 968 C 325 954.754 335.754 944 349 944 C 362.246 944 373 954.754 373 968 Z " fill="rgb(242,207,119)"/><path d=" M 277 944 C 277 957.246 266.246 968 253 968 C 239.754 968 229 957.246 229 944 C 229 930.754 239.754 920 253 920 C 266.246 920 277 930.754 277 944 Z " fill="rgb(242,207,119)"/><path d=" M 181 968 C 181 981.246 170.246 992 157 992 C 143.754 992 133 981.246 133 968 C 133 954.754 143.754 944 157 944 C 170.246 944 181 954.754 181 968 Z " fill="rgb(242,207,119)"/><path d=" M 157 752 C 157 765.246 146.246 776 133 776 C 119.754 776 109 765.246 109 752 C 109 738.754 119.754 728 133 728 C 146.246 728 157 738.754 157 752 Z " fill="rgb(242,207,119)"/><path d=" M 581 968 C 581 981.246 570.246 992 557 992 C 543.754 992 533 981.246 533 968 C 533 954.754 543.754 944 557 944 C 570.246 944 581 954.754 581 968 Z " fill="rgb(242,207,119)"/><path d=" M 453 936 C 453 949.246 442.246 960 429 960 C 415.754 960 405 949.246 405 936 C 405 922.754 415.754 912 429 912 C 442.246 912 453 922.754 453 936 Z " fill="rgb(242,207,119)"/><path d=" M 525 888 C 525 901.246 514.246 912 501 912 C 487.754 912 477 901.246 477 888 C 477 874.754 487.754 864 501 864 C 514.246 864 525 874.754 525 888 Z " fill="rgb(242,207,119)"/><path d=" M 581 728 C 581.003 714.745 570.26 703.998 557.005 703.995 C 543.75 703.992 533.003 714.735 533 727.99 C 532.999 734.358 535.528 740.466 540.032 744.968 L 541 744 L 540.032 744.968 C 549.406 754.339 564.602 754.337 573.973 744.963 C 578.471 740.463 580.999 734.362 581 728 Z " fill="rgb(242,207,119)"/></g><path d=" M 504.314 510 L 504.314 526 L 443 526 L 443 510 L 504.314 510 Z " fill="rgb(132,205,217)"/><path d=" M 548.051 553.738 L 536.738 565.051 L 493 521.314 L 504.314 510 L 548.051 553.738 Z " fill="rgb(132,205,217)"/><path d=" M 560.738 553.738 C 560.738 566.984 549.984 577.738 536.738 577.738 C 523.492 577.738 512.738 566.984 512.738 553.738 C 512.738 540.492 523.492 529.738 536.738 529.738 C 549.984 529.738 560.738 540.492 560.738 553.738 Z " fill="rgb(242,207,119)"/></g></g></svg>